<svg xmlns="http://www.w3.org/2000/svg" width="56" height="56" fill="none"><g clip-path="url(#a)"><path fill="#24D494" d="M28 56c15.4 0 28-12.6 28-28S43.4 0 28 0 0 12.6 0 28s12.6 28 28 28Z"/><path fill="#F3F3F3" fill-rule="evenodd" d="M27.395 9.82c-.845-.046-2.064-.01-2.71.08-.647.09-1.743.303-2.437.473-.694.171-1.752.51-2.35.754-.598.243-1.726.824-2.507 1.29-.781.467-1.864 1.258-2.406 1.76l-.985.91 3.138 3.151 3.139 3.15.713-.572a10.906 10.906 0 0 1 1.539-.997c.454-.233 1.32-.553 1.923-.71.604-.158 1.644-.287 2.31-.287.668 0 1.713.13 2.324.288.61.159 1.558.544 2.104.858.547.313 1.387.939 1.868 1.39.48.452 1.188 1.357 1.574 2.012.385.655.824 1.724.976 2.375.152.651.277 1.681.278 2.29.002.607-.148 1.684-.332 2.391-.184.708-.63 1.775-.99 2.373-.36.597-1.042 1.45-1.517 1.897a12.103 12.103 0 0 1-1.869 1.39c-.553.318-1.53.703-2.169.855-.639.152-1.679.277-2.31.279a10.618 10.618 0 0 1-2.247-.284c-.603-.158-1.469-.478-1.923-.71a10.906 10.906 0 0 1-1.54-.998l-.712-.573-3.139 3.151L14 40.957l.985.911c.542.5 1.625 1.286 2.406 1.744.781.459 1.949 1.053 2.595 1.32.646.269 1.947.663 2.891.878 1.238.282 2.322.39 3.886.39 1.585 0 2.627-.107 3.87-.397a22.964 22.964 0 0 0 3.237-1.061 22.748 22.748 0 0 0 2.867-1.542c.733-.483 1.968-1.513 2.743-2.289.776-.776 1.76-1.935 2.186-2.574.426-.64 1.092-1.846 1.48-2.68.389-.836.864-2.14 1.056-2.898.193-.758.426-2.134.52-3.058.097-.968.105-2.317.017-3.187a31.07 31.07 0 0 0-.363-2.533 18.039 18.039 0 0 0-.647-2.193 25.98 25.98 0 0 0-.91-2.112c-.26-.52-.8-1.437-1.2-2.038-.399-.601-1.398-1.76-2.22-2.577-.875-.868-2.156-1.89-3.09-2.465-.877-.54-2.16-1.21-2.85-1.49s-1.992-.665-2.892-.855c-.9-.191-2.327-.385-3.172-.43Zm-.64 13.739c-.819 0-1.335.12-2.04.474-.52.26-1.136.732-1.37 1.047a10.2 10.2 0 0 0-.749 1.211c-.204.402-.325 1.044-.326 1.735-.002.87.106 1.298.524 2.071.289.536.776 1.167 1.082 1.403a6.63 6.63 0 0 0 1.219.707c.364.153 1.042.279 1.505.279.464 0 1.159-.095 1.544-.212.385-.116 1.027-.494 1.428-.84.4-.345.905-.967 1.122-1.382.298-.568.395-1.07.395-2.03 0-.951-.097-1.46-.384-2.004-.212-.4-.616-.946-.899-1.211a6.899 6.899 0 0 0-1.233-.865c-.503-.268-1.052-.383-1.817-.383Z" clip-rule="evenodd"/><path stroke="#000" stroke-opacity=".02" d="M55.5 28a27.5 27.5 0 1 1-55 0 27.5 27.5 0 0 1 55 0Z"/></g><defs><clipPath id="a"><path fill="#fff" d="M0 0h56v56H0z"/></clipPath></defs></svg>