<svg width="40" height="40" viewBox="0 0 40 40" fill="none" xmlns="http://www.w3.org/2000/svg">
<g clip-path="url(#clip0_3679_75)">
<path fill-rule="evenodd" clip-rule="evenodd" d="M40 20C40 23.9556 38.827 27.8224 36.6294 31.1114C34.4318 34.4004 31.3082 36.9638 27.6537 38.4776C23.9992 39.9913 19.9778 40.3874 16.0982 39.6157C12.2186 38.844 8.65492 36.9392 5.85787 34.1421C3.06082 31.3451 1.15601 27.7814 0.384303 23.9018C-0.387401 20.0222 0.00866568 16.0009 1.52242 12.3463C3.03617 8.69181 5.59962 5.56824 8.8886 3.37061C12.1776 1.17298 16.0444 0 20 0C25.3043 0 30.3914 2.10714 34.1421 5.85786C37.8929 9.60859 40 14.6957 40 20Z" fill="#006AFF"/>
<path d="M24.232 31.3842C26.908 31.3842 28.992 29.2202 28.992 26.7082C28.992 24.0202 27.04 22.0402 24.232 21.8722C22.912 21.7922 22.128 21.0962 22.128 20.0002C22.128 18.9042 22.912 18.2042 24.232 18.1282C27.04 17.9602 28.992 15.9802 28.992 13.2922C28.992 10.7802 26.908 8.61621 24.232 8.61621C21.54 8.61621 19.48 10.8122 19.48 13.2922C19.48 14.0722 19.68 14.9002 20.108 15.7562C20.332 16.2082 20.44 16.6242 20.44 17.0002C20.44 18.1202 19.444 18.7722 18.628 18.7722C17.972 18.7722 17.356 18.3722 16.864 17.6282C15.84 16.0722 14.408 15.2482 12.74 15.2482C10.116 15.2482 7.98399 17.3762 7.98399 20.0042C7.98399 22.6322 10.112 24.7602 12.74 24.7602C14.412 24.7602 15.84 23.9362 16.864 22.3802C17.356 21.6362 17.972 21.2362 18.628 21.2362C19.44 21.2362 20.44 21.8922 20.44 23.0082C20.44 23.3842 20.336 23.8002 20.108 24.2522C19.68 25.1042 19.48 25.9322 19.48 26.7162C19.484 29.1722 21.52 31.3842 24.232 31.3842Z" fill="white"/>
<path opacity="0.02" d="M20 1C24.3957 1.0023 28.6545 2.52861 32.051 5.31888C35.4474 8.10914 37.7714 11.9907 38.6268 16.3023C39.4823 20.6139 38.8163 25.0887 36.7424 28.9643C34.6685 32.84 31.315 35.8766 27.2532 37.557C23.1915 39.2373 18.6727 39.4573 14.4669 38.1795C10.2611 36.9017 6.62844 34.2052 4.18786 30.5494C1.74727 26.8936 0.649757 22.5046 1.08231 18.1303C1.51485 13.756 3.4507 9.66703 6.56003 6.56C8.32534 4.79599 10.4209 3.39704 12.7269 2.44304C15.033 1.48904 17.5044 0.998695 20 1V1ZM20 4.56507e-07C15.3729 -0.000987761 10.8885 1.60248 7.31107 4.53718C3.73363 7.47188 1.28444 11.5562 0.380826 16.0943C-0.522786 20.6324 0.17509 25.3434 2.35554 29.4246C4.53599 33.5058 8.06411 36.7047 12.3387 38.4762C16.6133 40.2477 21.37 40.4822 25.7981 39.1398C30.2263 37.7974 34.0519 34.9611 36.6233 31.1142C39.1947 27.2673 40.3526 22.6478 39.8998 18.0428C39.447 13.4379 37.4114 9.13239 34.14 5.86C30.3902 2.10901 25.3039 0.0011332 20 4.56507e-07V4.56507e-07Z" fill="black"/>
</g>
<defs>
<clipPath id="clip0_3679_75">
<rect width="40" height="40" fill="white"/>
</clipPath>
</defs>
</svg>
