<svg xmlns="http://www.w3.org/2000/svg" width="56" height="56" fill="none"><g clip-path="url(#a)"><path fill="#0F0F0F" d="M28 56c15.464 0 28-12.536 28-28S43.464 0 28 0 0 12.536 0 28s12.536 28 28 28Z"/><path fill="#fff" d="M19.866 40.81c-4.984-3.122-5.152-12.082.854-13.93 2.492-.91 5.082-1.526 7.588-2.31 11.088-3.164-1.064-11.2-5.152-3.78a1.76 1.76 0 0 0-.196.462c0 .224-.098.448-.098.448h-5.6c.238-12.488 23.422-11.634 21.252 1.4a5.754 5.754 0 0 1-3.43 4.368 56.94 56.94 0 0 1-10.598 3.5c-2.982.7-2.8 5.292-.182 6.356a7 7 0 0 0 9.296-3.36c.182-.42.392-.84.392-.84h5.768c-.56 9.338-13.328 12.236-19.894 7.686Z"/></g><defs><clipPath id="a"><path fill="#fff" d="M0 0h56v56H0z"/></clipPath></defs></svg>