<svg version="1" xmlns="http://www.w3.org/2000/svg" width="682.667" height="682.667" viewBox="0 0 512.000000 512.000000"><path d="M234.5.7C161.6 9.6 104.8 57.1 84.2 126.6c-3.5 11.7-3.9 13.8-6.2 30.4-.9 6.8-.6 41.8.5 50.5 2.6 21.8 9.3 47.1 18.7 70.9 3.9 10 16.9 36.8 19.2 39.6.7.8 3 4.4 5.1 8 5.8 9.6 15.8 23.3 24.6 33.5 23.2 27 49.6 45.9 76.1 54.5 12.2 4 16 4.5 30.8 4.4 19.5-.1 36-5 56-16.7 14.4-8.5 23.4-15.8 38.5-31 24.9-25.3 41.8-51.5 59.9-93.2 3.8-8.8 10.6-30.8 13.6-44.5 2.8-12.1 2.6-10.8 5.5-35 .6-4.8.7-30.2.1-36-2.6-28-11.4-54.9-25.1-77.5-2.7-4.4-5.2-8.5-5.7-9-23.3-30.3-39.8-44.3-69.8-59-12.1-6-32.9-12.4-45.5-14.1-2.7-.3-5.4-.9-5.9-1.2-1-.6-35.5-1-40.1-.5zm30.6 27.7c16.8 1.3 33.9 5.9 50.9 14 7.4 3.5 21.2 11.7 20.7 12.2-.2.2-3.9.6-8.3 1-22.3 1.6-46.5 11.6-69.2 28.6l-7.6 5.7-2.6-2.3c-4.1-3.8-13-9.9-22.1-15.3-16.1-9.5-35.4-15.8-51.3-16.8-4.3-.2-8-.6-8.2-.8-.6-.5 17.7-11.1 24.1-13.9 17.4-7.6 31.3-11.2 48.5-12.4 4.7-.4 8.6-.7 8.7-.9.3-.1 3.8 0 16.4.9zm-80.7 56.1c14.7 3.4 30.1 11.1 43.8 21.7l3.7 2.9-8 9.7c-21.5 25.8-39.2 58.6-50.5 93.2-3.2 9.8-8.6 31.1-9.8 39-.3 1.9-.8 4.8-1.1 6.5-1.5 9.5-2 19.3-1.9 38 .1 16.8.6 23.2 2.2 32 1.2 6 2 11 1.9 11.1-.5.5-9.5-11.3-15.6-20.4-13.7-20.4-24.1-41.5-31.9-64.9-4.3-12.6-9.6-33.9-10.6-42.8-.4-2.8-.9-6.6-1.2-8.5-1.2-8.3-1.1-36.9.3-46 5.7-39.1 24-65 50.6-71.6 6.4-1.6 21-1.5 28.1.1zm164.1-.1c3 .7 14.7 6 17.4 8 .8.6 4.7 4.3 8.5 8.1 16 16 24.5 41.6 25.1 75.5.7 43.5-12.1 88.5-36.8 129.9-7.6 12.7-22.5 33.6-23.4 32.7-.1-.1.4-3.4 1.1-7.2 13.7-66.9-11.4-154-61.6-214.3l-6.7-8 7.7-5.6c13.1-9.5 27-16.1 40-19.1 5.6-1.3 22.6-1.3 28.7 0zm-89.8 51.4c9.8 10.3 25.9 36.5 35.3 57.3 8.6 19.2 16.8 45.6 19.5 62.9.4 2.5.9 5.3 1.1 6.4 1.3 6.9 1.9 18.5 1.8 34.1-.2 25.9-4.2 43.8-13.7 61.9-5.3 10-16.6 21.9-25.2 26.3-25 13-54.1 5.6-70.9-18-4-5.7-6.5-10.3-11.1-21-2.1-4.9-6.2-23.3-7.2-32.2-1.3-11.4-.7-37.1 1.1-49 1.5-10.5 1.8-12.2 3.2-19 1.3-6.9 6.8-25.3 10.4-34.9 10.3-27.9 26.1-55.7 42.5-74.9l6.6-7.7 2.7 3.2c1.5 1.8 3.2 3.9 3.9 4.6zM195.4 459.9c-9.2 4.2-13 14.5-8.4 23.2 2.9 5.3 5.8 6.9 19.5 10.4 10 2.6 13.1 3.1 29 5 5.2.6 30.8.7 33.8.1 1.2-.3 4.5-.7 7.2-1 2.8-.3 6.1-.8 7.5-1.1 1.4-.2 5-1 8-1.6 12.4-2.4 19.1-5 22.5-8.5 7.7-7.9 5.3-21.3-4.5-25.9-4.8-2.2-7.9-2.1-18.5.4-13.1 3.1-13.2 3.1-19.9 3.9-7.7.9-31.3.9-38.6 0-6.7-.8-14.1-2.3-22.2-4.3-9.1-2.4-11.1-2.5-15.4-.6z"/></svg>
