<svg viewBox="0 0 96 96" xmlns="http://www.w3.org/2000/svg">
  <g>
    <path d="M48.0003,4 C72.3011542,4 92.0003,23.6991458 92.0003,48 C92.0003,72.3008542 72.3011542,92 48.0003,92 C23.6994458,92 4.0003,72.3008542 4.0003,48 C4.0003,23.6991458 23.6994458,4 48.0003,4 Z M48.0003,10 C27.0131542,10 10.0003,27.0128542 10.0003,48 C10.0003,68.9871458 27.0131542,86 48.0003,86 C68.9874458,86 86.0003,68.9871458 86.0003,48 C86.0003,27.0128542 68.9874458,10 48.0003,10 Z M48.0003,60.5 C50.7613,60.5 53.0003,62.738 53.0003,65.5 C53.0003,68.262 50.7613,70.5 48.0003,70.5 C45.2383,70.5 43.0003,68.262 43.0003,65.5 C43.0003,62.738 45.2383,60.5 48.0003,60.5 Z M51.0003,24.5 L51.0003,50.5 L45.0003,50.5 L45.0003,24.5 L51.0003,24.5 Z" />
  </g>
</svg>
