<svg xmlns="http://www.w3.org/2000/svg" viewBox="0 0 48 48">
  <path
    d="M24,6 C33.9413333,6 42,14.0586667 42,24 C42,33.9413333 33.9413333,42 24,42 C14.0586667,42 6,33.9413333 6,24 C6,14.0586667 14.0586667,6 24,6 Z M24,8 C15.1632362,8 8,15.1632362 8,24 C8,32.8367638 15.1632362,40 24,40 C32.8367638,40 40,32.8367638 40,24 C40,15.1632362 32.8367638,8 24,8 Z M24.5,29.5 C25.3284271,29.5 26,30.1715729 26,31 C26,31.8284271 25.3284271,32.5 24.5,32.5 C23.6715729,32.5 23,31.8284271 23,31 C23,30.1715729 23.6715729,29.5 24.5,29.5 Z M25.5,15 L25.5,27 L23.5,27 L23.5,15 L25.5,15 Z" />
</svg>
