<svg viewBox="0 0 20 20" xmlns="http://www.w3.org/2000/svg">
  <g transform="translate(2 2)">
    <circle cx="8" cy="8" fill="#49CC68" r="9" stroke="#FFF"/>
    <path d="M6.8307 12.8404l.0889.0155c.3564.0956.7108.1439 1.0584.1439h.051c.3438 0 .6957-.0478 1.053-.1424a.5.5 0 01.256.9668c-.4393.1162-.8769.1756-1.309.1756l-.3135-.0072a5.155 5.155 0 01-1.055-.1709.5.5 0 01.259-.9658zm1.1614-.6736c-1.402.0064-2.9177-1.2533-3.7546-3.0375-.6226-1.325-.755-2.7436-.3606-3.8127l-.0084.0231.0038-.012c.5579-1.6296 2.1042-2.74 3.91-2.823l.218-.005c1.8984 0 3.5467 1.133 4.127 2.828l-.0068-.016c.3709 1.0023.2795 2.3044-.2405 3.551l-.118.2661c-.8383 1.7895-2.3616 3.0522-3.7668 3.0379l.0183-.001zM8.001 5.796l-.1005.1116c-.3003.3508-.565.7613-.7769 1.2134-.8166 1.7398-.565 3.529.3987 3.9465.1488.0643.3105.0976.482.099a1.2275 1.2275 0 00.473-.0988c.9642-.4178 1.2157-2.2069.399-3.947-.2347-.5007-.5342-.9505-.8753-1.3247zm2.4562-.9747c-.4685-.203-1.083-.0899-1.7006.3182.4024.4464.752.974 1.025 1.5565.4568.9733.643 1.9913.5685 2.8824a5.7478 5.7478 0 00.5067-.8743c.5156-1.0975.623-2.2429.3284-3.0413a.5097.5097 0 01-.0025-.007l-.0597-.1427c-.1547-.3345-.3812-.5687-.6658-.6918zm-3.2135.3182c-.6172-.4082-1.232-.5212-1.701-.318-.3251.1407-.5745.4264-.7276.8413-.2948.799-.188 1.9444.3276 3.0415a5.8 5.8 0 00.5072.8752c-.0746-.8921.1116-1.9101.5684-2.8832.228-.4864.5091-.9343.83-1.3282zm.7566-1.6398c-.5016 0-.9786.1-1.407.2823.4736.1016.9524.3296 1.4063.667.4541-.3369.9334-.5652 1.4068-.667-.4277-.1823-.9046-.2823-1.4061-.2823z" fill="#FFF"/>
  </g>
</svg>
